<svg width="64" height="64" viewBox="0 0 64 64" fill="none" xmlns="http://www.w3.org/2000/svg">
<rect width="64" height="64" rx="16" fill="#EF3340"/>
<path opacity="0.15" d="M56.5809 56.3181C54.8662 55.8063 49.2806 53.3228 49.2806 53.3228C47.8582 52.5996 47.7562 52.4493 45.9753 52.3934L20.0402 52.7547C16.8134 52.6355 9.61156 53.9309 8.3804 55.7503C7.12891 57.5972 11.6475 59.3227 14.9317 59.4168C14.9317 59.4168 40.1887 60.3638 48.571 60.38C56.6904 60.437 60.6289 57.5535 56.5809 56.3181Z" fill="#001177"/>
<path d="M30.1411 56.3311H15.8589C15.8589 56.3311 7 50.2013 7 39.6257V37.908C7 29.0838 14.1747 21.9099 23 21.9099C31.8253 21.9099 39 29.0838 39 37.908V39.6257C38.9663 49.9993 30.1411 56.3311 30.1411 56.3311Z" fill="#BFC6F2"/>
<path d="M26.4361 19.7881H19.7666V12.4795C19.7666 11.8059 20.3055 11.267 20.9792 11.267H25.2571C25.9308 11.267 26.4698 11.8059 26.4698 12.4795V19.7881H26.4361Z" fill="#BFC6F2"/>
<path d="M24.8864 10.0882H21.1138V12.7153H24.8864V10.0882Z" fill="#BFC6F2"/>
<path d="M20.0696 10.6271H26.2675C26.8738 10.6271 27.3454 10.1555 27.3454 9.54929V9.07777C27.3454 8.47153 26.8738 8 26.2675 8H20.0696C19.4633 8 18.9917 8.47153 18.9917 9.07777V9.54929C18.9917 10.1555 19.497 10.6271 20.0696 10.6271Z" fill="#E1E4F4"/>
<path d="M12.6254 10.9975L15.5223 10.0881H19.3623V8.60619H15.2191L12.2549 9.51556L12.6254 10.9975Z" fill="#E1E4F4"/>
<path d="M23.1011 53.199C30.6168 53.199 36.7095 47.107 36.7095 39.5922C36.7095 32.0774 30.6168 25.9854 23.1011 25.9854C15.5854 25.9854 9.49268 32.0774 9.49268 39.5922C9.49268 47.107 15.5854 53.199 23.1011 53.199Z" fill="#EF3F54"/>
<path d="M23.8421 37.2344C23.6737 37.2344 23.5389 37.3018 23.3705 37.5039L21.5179 39.9962L20.8105 37.5712C20.7431 37.3355 20.5747 37.2344 20.44 37.2344C20.2042 37.2344 20.1031 37.3355 19.9684 37.5375L18.3179 40.8045H19.2273L20.3389 38.548L21.0126 40.8045H21.7873L23.4716 38.548V40.8045H24.2463V37.6723C24.2463 37.3692 24.0442 37.2344 23.8421 37.2344Z" fill="#F7F7FA"/>
<path d="M17.2396 37.807L16.4985 40.8046H17.3406L18.048 37.807H17.2396Z" fill="#F7F7FA"/>
<path d="M15.825 38.6491C15.8586 38.2449 15.6565 37.807 14.8144 37.807H13.1976L12.4565 40.8046H13.265L13.5344 39.6931H13.9723L14.7134 40.8046H15.6229L14.8144 39.6258C15.5218 39.4237 15.7576 39.0532 15.825 38.6491ZM14.2755 39.1543H13.7029L13.9386 38.2449H14.545C14.8818 38.2449 15.0502 38.4133 15.0165 38.6827C14.9492 38.9859 14.6797 39.1543 14.2755 39.1543Z" fill="#F7F7FA"/>
<path d="M27.6483 40.8383H28.4231L27.682 38.0765C27.5809 37.7734 27.3788 37.6723 27.1767 37.706C27.042 37.706 26.9073 37.7734 26.7725 37.9418L24.7852 40.8383H25.5936L25.9978 40.232H27.4799L27.6483 40.8383ZM26.3683 39.7268L27.1094 38.6491L27.3788 39.7605L26.3683 39.7268Z" fill="#F7F7FA"/>
<path d="M30.9826 40.2992C30.3089 40.2992 29.9384 39.8951 29.9721 39.4235C30.0394 38.7836 30.6458 38.3794 31.4542 38.3794C31.69 38.3794 32.0268 38.4131 32.2963 38.4805L32.431 37.8742C32.1952 37.8069 31.791 37.7732 31.5215 37.7732C30.1068 37.7732 29.1973 38.4131 29.0963 39.3899C28.9952 40.2655 29.6015 40.8718 30.9152 40.8718C31.1847 40.8718 31.4205 40.8381 31.7236 40.8044L31.8921 40.1645C31.6226 40.2319 31.3868 40.2992 30.9826 40.2992Z" fill="#F7F7FA"/>
<path d="M30.7136 23.9644H15.623L18.082 19.9902C18.4188 19.4513 19.0252 19.1145 19.6652 19.1145H26.7052C27.3452 19.1145 27.9515 19.4513 28.2883 19.9902L30.7136 23.9644Z" fill="#E1E4F4"/>
<path d="M26.7389 17.0599H19.4295C18.8231 17.0599 18.3516 16.5884 18.3516 15.9821V14.3318C18.3516 13.7255 18.8231 13.254 19.4295 13.254H26.7052C27.3116 13.254 27.7831 13.7255 27.7831 14.3318V15.9821C27.8168 16.5547 27.3116 17.0599 26.7389 17.0599Z" fill="#E1E4F4"/>
<path d="M53.8944 53.8693C53.7839 54.4069 53.5221 54.8991 53.1381 55.2912C50.7213 57.7243 47.0326 58.3937 43.8826 56.9291L28.4317 49.8354C26.8422 49.1304 25.8565 47.5539 25.8309 45.8215L25.8274 44.3112C25.8157 43.6736 26.0391 43.0558 26.4394 42.567L30.0256 38.2652L35.1142 39.7785L54.817 46.3971L54.817 48.0458C54.8322 48.545 54.7635 49.0697 54.6949 49.5945L53.8944 53.8693Z" fill="#BFC6F2"/>
<path d="M33.676 45.7138L26.7046 43.5852C26.3055 43.4781 26.1519 42.9755 26.4102 42.6218L30.0255 38.2652L33.676 45.7138Z" fill="#929AE8"/>
<path d="M43.6309 55.3573C40.2877 53.8602 31.2985 49.3256 31.2985 49.3256L30.4875 50.7184L43.9241 56.9164C47.0194 58.3519 50.7046 57.821 53.1342 55.4298C53.5601 55.0248 53.8091 54.4907 53.9197 53.9532L54.0697 52.9456C53.524 53.7077 52.8526 54.5083 52.1079 54.9191C50.2927 56.0234 46.9321 56.8673 43.6309 55.3573Z" fill="#035279"/>
<path d="M47.9975 50.9088C47.9975 50.9088 51.0707 52.1221 52.8568 51.0724C54.643 50.0228 54.4311 47.9808 54.395 46.6637L47.9975 50.9088Z" fill="#31374C"/>
<path d="M26.27 39.9167C26.263 40.1937 26.4236 40.4194 26.6552 40.5776L35.8632 46.8772L43.9715 50.6277C45.7798 51.449 47.7568 51.6233 49.5965 51.1985C49.5965 51.1985 51.0824 50.5153 53.0245 48.7769C53.7762 48.0892 54.4185 47.3433 54.8281 47.0349C55.041 46.8324 55.2411 46.5881 55.3447 46.3274C55.6589 45.4071 56.2034 43.5919 56.2255 42.1655L26.8902 38.9486L26.6773 39.1511C26.3968 39.2826 26.2642 39.5979 26.27 39.9167Z" fill="#F7F7FA"/>
<path d="M54.7578 45.4535C51.8895 48.2078 47.6306 48.9599 43.9721 47.3301L26.9829 39.6989C26.6128 39.5372 26.5686 39.0928 26.8525 38.8228L35.4155 30.5727C35.7704 30.2352 36.2987 30.1654 36.7234 30.3562L53.4392 37.8419C56.4251 39.2192 57.1292 43.1716 54.7578 45.4535Z" fill="#035279"/>
<path d="M53.1944 44.2368C50.7939 46.5734 47.2181 47.1625 44.1484 45.8107L26.5285 37.9143C26.4423 37.4827 26.5366 37.0417 26.7821 36.6461C28.4041 33.8605 31.0909 31.7112 33.9534 30.2868C34.3467 30.075 34.804 30.0726 35.2287 30.2634L52.1214 37.8783C54.6023 38.952 55.1691 42.3052 53.1944 44.2368Z" fill="#035279"/>
<path d="M52.455 42.8573C52.6656 42.3163 52.2698 41.6573 51.5709 41.3854C50.8721 41.1134 50.1348 41.3316 49.9243 41.8726C49.7137 42.4136 50.1095 43.0726 50.8084 43.3445C51.5072 43.6165 52.2444 43.3983 52.455 42.8573Z" fill="#E1E4F4"/>
<path d="M32.4984 36.9143L37.3483 31.9515C37.7323 31.5593 38.3443 31.4638 38.8657 31.6709L50.6255 37.328C51.3784 37.6933 51.6018 38.7242 51.0596 39.3479L46.6088 44.4177C46.2376 44.8517 45.5964 45.0019 45.0623 44.753L32.9453 38.976C32.0667 38.6491 31.8724 37.5636 32.4984 36.9143Z" fill="#2B2E3A"/>
<path d="M35.6896 47.8492C36.4467 47.1358 36.1592 45.6014 35.0476 44.422C33.936 43.2427 32.4212 42.8649 31.6642 43.5783C30.9071 44.2917 31.1946 45.8261 32.3062 47.0055C33.4178 48.1848 34.9326 48.5626 35.6896 47.8492Z" fill="#035279"/>
</svg>
