<svg width="8" height="16" viewBox="0 0 8 16" fill="none" xmlns="http://www.w3.org/2000/svg">
<path d="M6.92887 0.00332907L5.20192 0C3.26174 0 2.00792 1.54552 2.00792 3.93762V5.75313H0.271547C0.121503 5.75313 0 5.89927 0 6.07954V8.71001C0 8.89028 0.121642 9.03626 0.271547 9.03626H2.00792V15.6738C2.00792 15.854 2.12942 16 2.27947 16H4.54494C4.69498 16 4.81649 15.8539 4.81649 15.6738V9.03626H6.84671C6.99676 9.03626 7.11826 8.89028 7.11826 8.71001L7.11909 6.07954C7.11909 5.99299 7.09041 5.91009 7.03957 5.84884C6.98872 5.78758 6.91945 5.75313 6.8474 5.75313H4.81649V4.2141C4.81649 3.47438 4.9632 3.09886 5.76524 3.09886L6.92859 3.09836C7.0785 3.09836 7.2 2.95222 7.2 2.77211V0.329578C7.2 0.149642 7.07863 0.00366198 6.92887 0.00332907Z" fill="#A3ABCC"/>
</svg>
