<svg width="16" height="16" viewBox="0 0 16 16" fill="none" xmlns="http://www.w3.org/2000/svg">
<path fill-rule="evenodd" clip-rule="evenodd" d="M0.258936 5.31277H3.57746V16H0.258936V5.31277ZM1.9245 0C2.98544 0 3.84899 0.864863 3.84899 1.92741C3.84899 2.98995 2.98544 3.85482 1.9245 3.85482C0.857388 3.85482 0 2.98995 0 1.92741C0 0.864863 0.857388 0 1.9245 0Z" fill="#A3ABCC"/>
<path fill-rule="evenodd" clip-rule="evenodd" d="M5.662 5.31274H8.83865V6.77683H8.88183C9.32594 5.93668 10.4054 5.05328 12.0215 5.05328C15.377 5.05328 16 7.26486 16 10.1436V16H12.6876V10.8046C12.6876 9.56292 12.6691 7.9691 10.9667 7.9691C9.23959 7.9691 8.98052 9.322 8.98052 10.712V16H5.66816V5.31274H5.662Z" fill="#A3ABCC"/>
</svg>
